<?xml version="1.0"?>
<svg version="1.1" xmlns="http://www.w3.org/2000/svg" xmlns:xlink="http://www.w3.org/1999/xlink" width="100" height="100">
    <desc iVinci="yes" version="4.6" gridStep="9" showGrid="no" snapToGrid="no" codePlatform="0"/>
    <g id="Layer1" name="dude" opacity="1">
        <g id="Shape1">
            <desc shapeID="1" type="0" basicInfo-basicType="0" basicInfo-roundedRectRadius="12" basicInfo-polygonSides="6" basicInfo-starPoints="5" bounding="rect(-27.3393,-18.7927,54.6786,37.5854)" text="" font-familyName="" font-pixelSize="20" font-bold="0" font-underline="0" font-alignment="1" strokeStyle="0" markerStart="0" markerEnd="0" shadowEnabled="0" shadowOffsetX="0" shadowOffsetY="2" shadowBlur="4" shadowOpacity="160" blurEnabled="0" blurRadius="4" transform="matrix(1.06698,0,0,1.06698,53.9004,69.3374)" pers-center="0,0" pers-size="0,0" pers-start="0,0" pers-end="0,0" locked="0" mesh="" flag=""/>
            <path id="shapePath1" d="M82.8309,57.8063 L74.5084,49.4838 C74.0816,49.057 73.4414,49.3771 73.4414,49.9106 L73.4414,55.3522 C73.4414,55.6723 73.1213,55.9924 72.8012,55.9924 L65.2257,55.9924 C62.7716,55.9924 60.7444,58.0196 60.7444,60.4737 L60.7444,70.2899 C60.7444,70.7167 60.4243,71.0368 59.9975,71.0368 L48.5808,71.0368 C46.1267,71.0368 44.0994,73.0641 44.0994,75.5181 L44.0994,84.2674 C44.0994,84.6942 43.7794,85.0143 43.3526,85.0143 L26.9211,85.0143 C25.534,85.0143 24.467,86.1879 24.7871,87.575 C25.0005,88.642 25.9608,89.3889 27.1344,89.3889 L43.9927,89.3889 C46.4468,89.3889 48.4741,87.3616 48.4741,84.9076 L48.4741,76.1583 C48.4741,75.7315 48.7942,75.4114 49.221,75.4114 L60.6377,75.4114 C63.0917,75.4114 65.119,73.3842 65.119,70.9301 L65.119,61.1139 C65.119,60.6871 65.4391,60.367 65.8659,60.367 L72.8012,60.367 C73.1213,60.367 73.4414,60.6871 73.4414,61.0072 L73.4414,66.4488 C73.4414,66.9823 74.0816,67.3024 74.5084,66.8756 L82.8309,58.5531 C83.1509,58.4464 83.1509,58.1263 82.8309,57.8063 Z" style="stroke:none;fill-rule:nonzero;fill:#ffffff;fill-opacity:1;"/>
        </g>
        <g id="Shape2">
            <desc shapeID="2" type="0" basicInfo-basicType="0" basicInfo-roundedRectRadius="12" basicInfo-polygonSides="6" basicInfo-starPoints="5" bounding="rect(-5.9,-4.95868,11.8,9.91736)" text="" font-familyName="" font-pixelSize="20" font-bold="0" font-underline="0" font-alignment="1" strokeStyle="0" markerStart="0" markerEnd="0" shadowEnabled="0" shadowOffsetX="0" shadowOffsetY="2" shadowBlur="4" shadowOpacity="160" blurEnabled="0" blurRadius="4" transform="matrix(1.06698,0,0,1.06698,42.7124,21.573)" pers-center="0,0" pers-size="0,0" pers-start="0,0" pers-end="0,0" locked="0" mesh="" flag=""/>
            <path id="shapePath2" d="M49.0076,20.5686 C49.0076,24.0453 46.1891,26.8638 42.7124,26.8638 C39.2356,26.8638 36.4172,24.0453 36.4172,20.5686 C36.4172,17.0919 40.0748,20.0548 43.1823,17.7078 C47.3305,14.5749 49.0076,17.0919 49.0076,20.5686 Z" style="stroke:none;fill-rule:evenodd;fill:#ffffff;fill-opacity:1;"/>
        </g>
        <g id="Shape3">
            <desc shapeID="3" type="0" basicInfo-basicType="0" basicInfo-roundedRectRadius="12" basicInfo-polygonSides="6" basicInfo-starPoints="5" bounding="rect(-23.0748,-25.5433,46.1496,51.0866)" text="" font-familyName="" font-pixelSize="20" font-bold="0" font-underline="0" font-alignment="1" strokeStyle="0" markerStart="0" markerEnd="0" shadowEnabled="0" shadowOffsetX="0" shadowOffsetY="2" shadowBlur="4" shadowOpacity="160" blurEnabled="0" blurRadius="4" transform="matrix(1.06698,0,0,1.06698,41.5494,54.7725)" pers-center="0,0" pers-size="0,0" pers-start="0,0" pers-end="0,0" locked="0" mesh="" flag=""/>
            <path id="shapePath3" d="M65.2257,28.571 C64.052,27.3973 62.2381,27.1839 60.8511,28.0375 L52.2085,33.2657 C51.7817,33.5858 51.2482,33.5858 50.7147,33.3724 L48.2607,32.1987 C48.0473,32.092 47.8339,31.8786 47.6205,31.6652 C46.3401,29.6379 43.9928,28.1442 41.3253,28.1442 C39.1913,28.1442 37.2708,28.9978 35.8837,30.3848 C35.777,30.4915 35.6703,30.4915 35.6703,30.5982 L35.5636,30.7049 C35.2435,30.8116 34.9234,30.9183 34.6033,31.1317 L22.8665,39.3475 C22.4397,39.6676 22.1196,39.9877 21.9062,40.4145 L17.3182,48.2034 C15.2701,52.1512 21.9062,54.7725 23.2933,51.5111 L27.4546,44.469 C27.4546,44.3623 27.5612,44.2556 27.6679,44.2556 L33.0028,40.5211 L33.3229,40.3078 C33.5363,40.0944 33.9631,40.3078 33.9631,40.6278 L33.8564,47.7766 C33.8564,49.3771 34.2832,50.8709 35.1368,52.1512 C35.1368,52.2579 35.3502,52.3646 35.5636,52.6847 L29.6952,77.6521 C29.3751,79.2526 30.0153,80.853 31.4024,81.5999 C31.9359,81.92 32.4694,82.0267 33.0028,82.0267 C34.6033,82.0267 35.9904,80.9597 36.3105,79.3593 L41.9655,55.3522 C41.9655,55.3522 42.0722,55.3522 42.0722,55.2455 C43.4593,55.1388 44.6329,54.6053 45.6999,53.8584 C45.9133,53.7517 46.1267,53.645 46.3401,53.8584 C47.3004,54.3919 50.0746,55.8857 50.9281,56.4192 C51.1415,56.5259 51.2482,56.7393 51.2482,56.9527 L51.7817,65.2751 C51.8884,67.089 53.3822,68.4761 55.1961,68.4761 C55.3028,68.4761 55.3028,68.4761 55.4095,68.4761 C57.33,68.3694 58.8238,66.6622 58.6104,64.7416 L57.9702,54.4986 C57.8635,53.3249 57.2233,52.2579 56.1563,51.7245 L49.221,47.8833 C48.9009,47.6699 48.5808,47.2431 48.5808,46.8163 L48.6875,40.8412 C48.6875,40.5211 49.1143,40.2011 49.4344,40.4145 L50.0746,40.7345 C51.1415,41.268 52.4219,41.1613 53.3822,40.6278 L64.3721,33.9059 C66.2927,32.8389 66.8261,30.2781 65.2257,28.571 Z" style="stroke:none;fill-rule:evenodd;fill:#ffffff;fill-opacity:1;"/>
        </g>
    </g>
    <g id="Layer2" name="hat" opacity="1">
        <g id="Shape4">
            <desc shapeID="4" type="0" basicInfo-basicType="0" basicInfo-roundedRectRadius="12" basicInfo-polygonSides="6" basicInfo-starPoints="5" bounding="rect(-29.462,-16.087,58.924,32.174)" text="" font-familyName="" font-pixelSize="20" font-bold="0" font-underline="0" font-alignment="1" strokeStyle="0" markerStart="0" markerEnd="0" shadowEnabled="0" shadowOffsetX="0" shadowOffsetY="2" shadowBlur="4" shadowOpacity="160" blurEnabled="0" blurRadius="4" transform="matrix(-0.201959,0,0,0.191934,41.6068,17.2186)" pers-center="0,0" pers-size="0,0" pers-start="0,0" pers-end="0,0" locked="0" mesh="" flag=""/>
            <path id="shapePath4" d="M41.8624,18.3013 C41.8675,18.3015 41.8723,18.3015 41.8776,18.3015 C41.9477,18.3015 42.0155,18.2764 42.0668,18.2307 L46.6555,14.131 L47.5569,16.6108 C47.5399,16.6557 47.3816,16.9526 46.0476,17.6031 C45.0459,18.0915 43.7011,18.6211 42.2609,19.094 C40.0175,19.8305 37.9158,20.3061 36.9066,20.3063 C36.6016,20.3063 36.5039,20.2606 36.4816,20.2473 L35.6566,17.9785 L41.8624,18.3013 Z" style="stroke:none;fill-rule:nonzero;fill:#ffffff;fill-opacity:1;"/>
        </g>
        <g id="Shape5">
            <desc shapeID="5" type="0" basicInfo-basicType="0" basicInfo-roundedRectRadius="12" basicInfo-polygonSides="6" basicInfo-starPoints="5" bounding="rect(-45.379,-18.6525,90.758,37.305)" text="" font-familyName="" font-pixelSize="20" font-bold="0" font-underline="0" font-alignment="1" strokeStyle="0" markerStart="0" markerEnd="0" shadowEnabled="0" shadowOffsetX="0" shadowOffsetY="2" shadowBlur="4" shadowOpacity="160" blurEnabled="0" blurRadius="4" transform="matrix(-0.201959,0,0,0.191934,40.4132,14.1911)" pers-center="0,0" pers-size="0,0" pers-start="0,0" pers-end="0,0" locked="0" mesh="" flag=""/>
            <path id="shapePath5" d="M34.7117,16.7937 C35.2039,15.4751 39.0211,14.6567 40.4503,14.4527 C40.6014,14.4312 40.7052,14.2974 40.6824,14.154 C40.6598,14.0106 40.52,13.9116 40.3679,13.9335 C40.3132,13.9413 39.0059,14.1304 37.5952,14.5402 C35.6389,15.1083 34.4938,15.8075 34.1912,16.6184 C34.082,16.9106 34.0113,17.1561 33.9662,17.3653 L31.2485,17.224 L39.1828,10.6111 L49.5779,10.7996 L41.7744,17.7712 L34.5233,17.3941 C34.564,17.2261 34.6236,17.0288 34.7117,16.7937 Z" style="stroke:none;fill-rule:nonzero;fill:#ffffff;fill-opacity:1;"/>
        </g>
        <g id="Shape6">
            <desc shapeID="6" type="0" basicInfo-basicType="0" basicInfo-roundedRectRadius="12" basicInfo-polygonSides="6" basicInfo-starPoints="5" bounding="rect(-12.2712,-19.9915,24.5424,39.983)" text="" font-familyName="" font-pixelSize="20" font-bold="0" font-underline="0" font-alignment="1" strokeStyle="0" markerStart="0" markerEnd="0" shadowEnabled="0" shadowOffsetX="0" shadowOffsetY="2" shadowBlur="4" shadowOpacity="160" blurEnabled="0" blurRadius="4" transform="matrix(-0.201959,0,0,0.191934,33.2449,21.2019)" pers-center="0,0" pers-size="0,0" pers-start="0,0" pers-end="0,0" locked="0" mesh="" flag=""/>
            <path id="shapePath6" d="M30.7902,19.7303 C30.953,19.1967 31.8679,19.1694 32.0495,19.1694 L32.0793,19.1712 C32.5194,19.2169 32.8781,19.1272 33.1772,18.8973 C33.8412,18.3864 33.96,17.375 33.9612,17.3649 L34.5216,17.3941 C34.5168,17.4449 34.3712,18.652 33.5276,19.3034 C33.1172,19.6199 32.6151,19.7522 32.0355,19.6946 C31.6837,19.6982 31.3446,19.7978 31.3206,19.8765 C31.3202,19.879 31.282,20.126 32.2454,20.7713 C32.4398,20.7086 32.6844,20.7577 32.8716,20.918 C32.9999,21.0277 33.077,21.1684 33.098,21.3072 C33.4387,21.4803 34.9647,22.3751 35.7176,24.8133 C35.739,24.8826 35.697,24.9559 35.6239,24.9762 C35.6112,24.9799 35.5979,24.9816 35.5851,24.9816 C35.5256,24.9816 35.4706,24.9444 35.4529,24.8874 C34.8399,22.9026 33.6744,21.978 33.1653,21.6548 C33.6958,22.0989 35.3953,23.6693 34.5384,24.9106 C34.5115,24.949 34.4677,24.9699 34.4227,24.9699 C34.3968,24.9699 34.3702,24.963 34.3469,24.9484 C34.2829,24.9087 34.2655,24.8275 34.3074,24.7666 C35.0314,23.7185 33.4803,22.2751 32.988,21.8573 C33.4232,22.3091 34.2544,23.2924 34.1712,24.135 C34.1355,24.5 33.9345,24.7973 33.5759,25.0181 C33.5532,25.0325 33.5268,25.039 33.5009,25.039 C33.4559,25.039 33.4115,25.0179 33.3852,24.9791 C33.3436,24.9184 33.362,24.8371 33.4262,24.7975 C33.7142,24.6204 33.8681,24.3958 33.8964,24.1108 C33.9846,23.2185 32.8151,22.0569 32.5832,21.8356 C32.4396,21.8268 32.2898,21.7701 32.1656,21.6636 C32.0163,21.5358 31.9386,21.3663 31.9351,21.2062 C31.0233,20.5982 30.667,20.1343 30.7902,19.7303 Z" style="stroke:none;fill-rule:nonzero;fill:#ffffff;fill-opacity:1;"/>
        </g>
    </g>
</svg>
