<svg xmlns="http://www.w3.org/2000/svg" xmlns:xlink="http://www.w3.org/1999/xlink" version="1.1" x="0px" y="0px" viewBox="0 0 100 100" enable-background="new 0 0 100 100" xml:space="preserve"><g><g><polygon fill="#ffffff" points="47.98,74.001 63.319,67.726 67.734,50.994 62.389,58.197 64.016,40.07 56.579,49.3 54.487,32.401 51.233,40.07     44.843,13.81 42.966,32.866 34,26.592 34,44.021 29,39.142 29,51.342 22.512,48.205 27.112,67.494 39.87,74.001 32.422,62.613     34.74,62.149 35.666,55.659 40.545,64.473 40.776,51.923 43.797,55.659 45.075,46.346 47.748,60.289 51.467,58.197 50.769,63.776     54.72,61.219   "></polygon><line fill="none" stroke="#ffffff" stroke-width="7" stroke-miterlimit="10" x1="23" y1="81.5" x2="79" y2="81.5"></line><g><path fill="#ffffff" d="M79,67.07V74h-7.064v-6.93H79z M77.021,64.37h-3.195l-1.71-13.86v-8.64h6.66v8.64L77.021,64.37z"></path></g></g></g></svg>