<svg xmlns="http://www.w3.org/2000/svg" viewBox="0 0 294.58 171.12"><defs><style>.cls-1{opacity:0.75;}.cls-2{fill:#fff;}</style></defs><g id="Layer_2" data-name="Layer 2"><g id="Layer_1-2" data-name="Layer 1"><g class="cls-1"><path class="cls-2" d="M286.58,160.82h0a27.33,27.33,0,0,1-38.67,0l-139-139,9.87-9.87a40.72,40.72,0,0,1,57.57,0L286.58,122.17A27.33,27.33,0,0,1,286.58,160.82Z"/></g><path class="cls-2" d="M164.29,159.22h0a27.33,27.33,0,0,1-38.65,0L48.55,82.14,87.2,43.49l77.09,77.07A27.33,27.33,0,0,1,164.29,159.22Z"/><path class="cls-2" d="M67.76,143.79l-.38.38L48.44,163.11a27.36,27.36,0,0,1-38.67,0L8,161.34a27.33,27.33,0,0,1,0-38.66L27,103.74l.38-.38Z"/></g></g></svg>