<?xml version="1.0" encoding="UTF-8" standalone="no"?>
<svg
  viewBox="0 0 16 16"
  version="1.1"
  xmlns="http://www.w3.org/2000/svg"
  xmlns:xlink="http://www.w3.org/1999/xlink">
  <g>
    <path d="M9.61,8.811c0.004,0.001 0.009,0.001 0.013,0.001c0.063,0 0.124,-0.023 0.169,-0.064l4.101,-3.664l0.806,2.217c-0.015,0.04 -0.157,0.305 -1.349,0.886c-0.895,0.437 -2.097,0.91 -3.384,1.333c-2.005,0.658 -3.883,1.083 -4.785,1.083c-0.273,0 -0.36,-0.041 -0.38,-0.053l-0.737,-2.027l5.546,0.288Z"/>
    <path d="M2.875,8.17l-2.074,-0.108l6.579,-5.483l8.62,0.156l-6.471,5.781l-6.161,-0.32c0.039,-0.157 0.065,-0.273 0.083,-0.322c0.431,-1.164 3.77,-1.887 5.02,-2.068c0.132,-0.019 0.223,-0.137 0.203,-0.264c-0.02,-0.126 -0.142,-0.214 -0.275,-0.194c-0.048,0.007 -1.191,0.174 -2.426,0.536c-1.711,0.502 -2.713,1.119 -2.977,1.836c-0.028,0.076 -0.066,0.242 -0.121,0.45l0.493,0.026c-0.126,0.511 -0.388,1.455 -0.953,1.896c-0.359,0.279 -0.798,0.396 -1.305,0.345c-0.308,0.004 -0.604,0.092 -0.625,0.161c-0.001,0.002 -0.034,0.22 0.809,0.791c0.17,-0.056 0.384,-0.012 0.547,0.129c0.113,0.097 0.18,0.221 0.198,0.344c0.298,0.153 1.633,0.943 2.292,3.098c0.019,0.061 -0.018,0.125 -0.082,0.143c-0.011,0.004 -0.023,0.005 -0.034,0.005c-0.052,0 -0.1,-0.033 -0.116,-0.083c-0.536,-1.754 -1.555,-2.57 -2.001,-2.856c0.464,0.392 1.951,1.78 1.201,2.876c-0.023,0.034 -0.061,0.053 -0.101,0.053c-0.022,0 -0.046,-0.006 -0.066,-0.019c-0.056,-0.035 -0.071,-0.107 -0.035,-0.161c0.634,-0.926 -0.723,-2.201 -1.154,-2.57c0.381,0.399 1.108,1.268 1.035,2.012c-0.031,0.323 -0.207,0.585 -0.521,0.78c-0.019,0.013 -0.042,0.019 -0.065,0.019c-0.039,0 -0.078,-0.019 -0.101,-0.053c-0.037,-0.054 -0.021,-0.125 0.036,-0.16c0.251,-0.157 0.386,-0.355 0.411,-0.607c0.077,-0.788 -0.946,-1.815 -1.149,-2.01c-0.126,-0.008 -0.257,-0.058 -0.365,-0.152c-0.131,-0.113 -0.199,-0.263 -0.202,-0.404c-0.797,-0.537 -1.109,-0.947 -1.001,-1.304c0.142,-0.472 0.942,-0.496 1.101,-0.496l0.026,0.002c0.385,0.04 0.699,-0.039 0.961,-0.242c0.41,-0.319 0.635,-1.062 0.766,-1.563Z"/>
  </g>
</svg>
