<svg id="Layer_1" data-name="Layer 1" xmlns="http://www.w3.org/2000/svg" viewBox="0 0 1300 900"><defs><style>.cls-1{fill:#3939ff;}.cls-2{fill:#3691ff;}.cls-3{fill:#5639ff;}</style></defs><path class="cls-1" d="M591.33,423.54l-1.6,8.6-.59-.15a18.48,18.48,0,0,0-4.35-.56,5.58,5.58,0,0,0-3.28,1c-.91.64-1.38,1.87-1.38,3.62V437H589v9.16h-8.91v30.4H568.7v-30.4h-6V437h6v-.69a16.94,16.94,0,0,1,1.06-6.31,11.7,11.7,0,0,1,3-4.41,12.15,12.15,0,0,1,4.45-2.52,18,18,0,0,1,5.47-.79,38.67,38.67,0,0,1,3.92.21,23.84,23.84,0,0,1,4.27.91Z"/><path class="cls-1" d="M628.05,448a17.94,17.94,0,0,0-4-6.62,17.66,17.66,0,0,0-6.35-4.14,23,23,0,0,0-8.31-1.44,22.73,22.73,0,0,0-8.22,1.44,17.58,17.58,0,0,0-6.35,4.14,18.11,18.11,0,0,0-4,6.62,25.51,25.51,0,0,0-1.41,8.69c0,6.7,1.77,11.92,5.25,15.56s8.44,5.47,14.75,5.47a22.75,22.75,0,0,0,8.23-1.44,17.58,17.58,0,0,0,6.36-4.18,18.63,18.63,0,0,0,4-6.65,25.76,25.76,0,0,0,1.4-8.76A26.55,26.55,0,0,0,628.05,448Zm-18.66,20.34c-2.82,0-4.82-.94-6.15-2.88s-2-4.93-2-8.77.7-6.71,2.07-8.66a8,8,0,0,1,12.25,0c1.38,1.95,2.07,4.86,2.07,8.66s-.69,6.73-2.07,8.72A6.83,6.83,0,0,1,609.39,468.35Z"/><path class="cls-1" d="M657.25,436.81l-1.4,10.5-.61-.15a17.51,17.51,0,0,0-4.22-.42,12.06,12.06,0,0,0-3.09.38,6.37,6.37,0,0,0-2.57,1.38,7.06,7.06,0,0,0-1.8,2.45,7.25,7.25,0,0,0-.59,2.8v22.8H631.54V437h11.14v4.17a12.79,12.79,0,0,1,3.8-3.25,12.17,12.17,0,0,1,6-1.59c1,0,1.85.05,2.5.11s1.23.17,1.74.28Z"/><path class="cls-1" d="M716.91,450.29v26.26H705.46V451.69a12.11,12.11,0,0,0-.34-3.2,4.93,4.93,0,0,0-.88-1.81,2.85,2.85,0,0,0-1.26-.86,5.44,5.44,0,0,0-1.66-.26,7.1,7.1,0,0,0-2.62.47,6.94,6.94,0,0,0-2.35,1.65,7.6,7.6,0,0,0-1.55,2.18,6.14,6.14,0,0,0-.57,2.57v24.12H682.79V451.69a12.55,12.55,0,0,0-.34-3.2,5.09,5.09,0,0,0-.89-1.81,2.8,2.8,0,0,0-1.26-.86,5.37,5.37,0,0,0-1.65-.26A7.19,7.19,0,0,0,676,446a6.94,6.94,0,0,0-2.35,1.65,7.32,7.32,0,0,0-1.54,2.29,7.22,7.22,0,0,0-.57,2.9v23.68H660.12V437h11.14v4a13.87,13.87,0,0,1,4.17-3.55,13.33,13.33,0,0,1,6.31-1.61,13.15,13.15,0,0,1,7.15,1.78,9.53,9.53,0,0,1,3.62,4.27,17.12,17.12,0,0,1,5.16-4.44,14.45,14.45,0,0,1,6.74-1.61c4.12,0,7.28,1.17,9.37,3.46S716.91,445.26,716.91,450.29Z"/><path class="cls-1" d="M755.07,445.16a12.41,12.41,0,0,0-2.86-5.05,12.69,12.69,0,0,0-5.19-3.2,23.54,23.54,0,0,0-7.69-1.1c-4.9,0-8.87.93-11.79,2.78s-4.85,4.93-5.56,9.1l-.11.6,10.55,1,.1-.51c.54-2.81,2.64-4.19,6.43-4.19a7.47,7.47,0,0,1,4.29,1.24c1.13.76,1.7,2.24,1.7,4.39v1.37l-4.39.2a57.07,57.07,0,0,0-7.32.74,23.61,23.61,0,0,0-6.6,2,12.53,12.53,0,0,0-4.85,4.08,11.59,11.59,0,0,0-1.87,6.81,12.76,12.76,0,0,0,1.08,5.43,10.66,10.66,0,0,0,2.92,3.77,11.88,11.88,0,0,0,4.25,2.17,18.57,18.57,0,0,0,5.06.68,15.32,15.32,0,0,0,7.6-1.69,21.1,21.1,0,0,0,4.26-3.27v4h10.86V451.69A22.88,22.88,0,0,0,755.07,445.16ZM731.69,463a3.23,3.23,0,0,1,1.23-1.54,8.61,8.61,0,0,1,2.86-1.19,24.82,24.82,0,0,1,5.12-.65l4-.19v1.39a7.34,7.34,0,0,1-.82,3.66,7.55,7.55,0,0,1-2.12,2.43,10.13,10.13,0,0,1-6.14,1.73,5.11,5.11,0,0,1-3.32-1,3.18,3.18,0,0,1-1.12-2.59A6,6,0,0,1,731.69,463Z"/><path class="cls-1" d="M784.21,475.93l-.49.15a25.5,25.5,0,0,1-4.25.95,32.24,32.24,0,0,1-3.93.26c-4.37,0-7.65-1.08-9.8-3.18s-3.22-5.67-3.22-10.57V446.15h-6V437h6V426.76H774V437h8.84v9.16H774v17.17c0,1.83.35,3.06,1,3.66a4.29,4.29,0,0,0,2.87.93,20.07,20.07,0,0,0,2-.11,13.7,13.7,0,0,0,2-.38l.59-.17Z"/><rect class="cls-1" x="786.86" y="422.86" width="11.74" height="10.4"/><rect class="cls-1" x="787" y="436.99" width="11.45" height="39.56"/><path class="cls-1" d="M830.52,423.54l-1.59,8.6-.59-.15a18.49,18.49,0,0,0-4.36-.56,5.55,5.55,0,0,0-3.27,1c-.92.64-1.38,1.87-1.38,3.62V437h8.9v9.16h-8.9v30.4H807.89v-30.4h-6V437h6v-.69A16.94,16.94,0,0,1,809,430a11.43,11.43,0,0,1,3-4.41,12,12,0,0,1,4.44-2.52,18.08,18.08,0,0,1,5.47-.79,38.51,38.51,0,0,1,3.92.21,23.76,23.76,0,0,1,4.28.91Z"/><path class="cls-2" d="M549.55,472.18h0a7.73,7.73,0,0,1-10.93,0L499.35,432.9l2.79-2.78a11.48,11.48,0,0,1,16.26,0l31.15,31.14A7.73,7.73,0,0,1,549.55,472.18Z"/><path class="cls-1" d="M515,471.73h0a7.73,7.73,0,0,1-10.92,0L482.3,450,493.22,439,515,460.81A7.73,7.73,0,0,1,515,471.73Z"/><path class="cls-3" d="M487.73,467.37l-.11.11-5.35,5.35a7.74,7.74,0,0,1-10.93,0l-.49-.5a7.71,7.71,0,0,1,0-10.92l5.35-5.35.1-.11Z"/><path class="cls-1" d="M830.23,477.6a5,5,0,0,1-1.78-.3,3.82,3.82,0,0,1-1.38-.89,4,4,0,0,1-.89-1.42,5.3,5.3,0,0,1-.31-1.88,5,5,0,0,1,.33-1.86,4.33,4.33,0,0,1,.93-1.41,4.07,4.07,0,0,1,1.39-.9,4.6,4.6,0,0,1,1.71-.31,5,5,0,0,1,1.81.31,3.89,3.89,0,0,1,1.37.9,4.09,4.09,0,0,1,.89,1.41,5.18,5.18,0,0,1,.32,1.86,5.08,5.08,0,0,1-.34,1.88A4,4,0,0,1,832,477.3,4.86,4.86,0,0,1,830.23,477.6Zm0-1a3.18,3.18,0,0,0,2.34-.89,4.27,4.27,0,0,0,0-5.19,3.51,3.51,0,0,0-4.67,0,4.31,4.31,0,0,0,0,5.19A3.16,3.16,0,0,0,830.23,476.6Zm-1.75-5.73h1.67a3.7,3.7,0,0,1,1,.11,1.71,1.71,0,0,1,.59.3.91.91,0,0,1,.29.42,1.85,1.85,0,0,1,.07.48,1.43,1.43,0,0,1-.16.74,1.39,1.39,0,0,1-.54.5l.92,1.78h-1.22l-.74-1.54h-.77v1.54h-1.08Zm1.77,1.92a.75.75,0,0,0,.56-.15.61.61,0,0,0,.14-.4.44.44,0,0,0-.18-.38,1.09,1.09,0,0,0-.64-.13h-.57v1.06Z"/></svg>