<?xml version="1.0" standalone="no"?>
<!DOCTYPE svg PUBLIC "-//W3C//DTD SVG 20010904//EN"
 "http://www.w3.org/TR/2001/REC-SVG-20010904/DTD/svg10.dtd">
<svg version="1.0" xmlns="http://www.w3.org/2000/svg"
 width="1180.000000pt" height="1180.000000pt" viewBox="0 0 1180.000000 1180.000000"
 preserveAspectRatio="xMidYMid meet">
<metadata>
Created by potrace 1.14, written by Peter Selinger 2001-2017
</metadata>
<g transform="translate(0.000000,1180.000000) scale(0.100000,-0.100000)"
fill="#000000" stroke="none">
<path d="M5778 9315 c-2 -1 -30 -6 -63 -10 -78 -9 -84 -10 -125 -20 -19 -5
-39 -9 -45 -10 -49 -6 -238 -72 -325 -113 -74 -35 -214 -116 -237 -136 -6 -6
-28 -22 -48 -36 -52 -36 -159 -136 -375 -353 l-191 -191 2816 -2816 c2027
-2027 2835 -2829 2887 -2865 279 -193 597 -247 933 -161 56 15 72 20 83 29 6
5 12 7 12 4 0 -3 27 8 60 24 33 16 65 29 70 29 6 0 10 5 10 10 0 6 5 10 11 10
24 0 173 117 243 190 82 86 137 163 189 265 30 60 64 144 71 180 1 6 5 19 9
30 7 21 12 47 27 130 5 28 7 104 5 170 -3 66 -5 129 -5 140 -1 37 -49 205 -75
261 -14 30 -25 58 -25 62 0 15 -122 196 -158 235 -20 22 -1044 1047 -2276
2279 -1985 1987 -2383 2378 -2416 2378 -5 0 -15 6 -22 13 -65 63 -366 199
-494 223 -40 8 -58 12 -64 15 -3 1 -9 3 -15 4 -5 1 -26 5 -45 8 -19 4 -53 10
-75 13 -42 6 -342 14 -347 9z"/>
<path d="M2724 6804 l-771 -772 1586 -1584 c1059 -1058 1606 -1597 1646 -1624
33 -21 62 -41 65 -44 16 -16 210 -102 210 -93 0 3 6 1 13 -5 11 -9 91 -28 197
-47 69 -13 264 -7 345 10 71 15 143 35 185 52 8 4 17 7 20 7 3 1 15 7 28 14
12 7 22 9 22 5 0 -4 4 -3 8 3 4 5 25 18 46 28 111 52 268 185 356 304 28 37
55 72 60 79 5 6 29 53 53 105 48 99 80 195 92 268 3 25 9 59 12 75 8 43 8 210
0 274 -14 104 -46 216 -89 309 -17 37 -32 69 -32 72 -2 9 -93 144 -117 174
-26 31 -3113 3121 -3145 3147 -18 14 -58 -24 -790 -757z"/>
<path d="M720 4796 c-442 -439 -472 -471 -532 -563 -43 -66 -106 -197 -124
-258 -39 -130 -45 -173 -49 -325 -2 -91 1 -156 11 -200 8 -36 16 -75 18 -87
13 -65 86 -234 139 -318 63 -102 215 -262 332 -352 139 -106 355 -196 510
-213 51 -5 295 -6 295 -1 0 3 17 7 38 9 89 6 289 78 369 133 23 16 45 29 48
29 8 0 75 51 124 95 57 51 822 818 819 821 -12 13 -1580 1583 -1595 1596 -18
17 -32 5 -403 -366z"/>
</g>
</svg>
